<?xml version="1.0" encoding="utf-8"?>
<!-- Generator: Adobe Illustrator 16.0.0, SVG Export Plug-In . SVG Version: 6.00 Build 0)  -->
<!DOCTYPE svg PUBLIC "-//W3C//DTD SVG 1.1//EN" "http://www.w3.org/Graphics/SVG/1.1/DTD/svg11.dtd">
<svg version="1.1" id="Layer_1" xmlns="http://www.w3.org/2000/svg" xmlns:xlink="http://www.w3.org/1999/xlink" x="0px" y="0px"
	 width="100px" height="100px" viewBox="0 0 100 100" enable-background="new 0 0 100 100" xml:space="preserve">
<g>
	<g>
		<g>
			<g>
				<path fill="#FFFFFF" d="M99.553,49.782c0,27.487-22.285,49.771-49.778,49.771C22.286,99.554,0,77.27,0,49.782
					C0,22.287,22.286,0,49.775,0C77.268,0,99.553,22.287,99.553,49.782"/>
			</g>
			<g>
				<defs>
					<path id="SVGID_1_" d="M4.662,49.782c0,24.911,20.197,45.111,45.111,45.111c24.92,0,45.118-20.2,45.118-45.111
						c0-24.917-20.198-45.12-45.118-45.12C24.859,4.663,4.662,24.865,4.662,49.782"/>
				</defs>
				<clipPath id="SVGID_2_">
					<use xlink:href="#SVGID_1_"  overflow="visible"/>
				</clipPath>
				<path clip-path="url(#SVGID_2_)" fill="#0798D1" d="M95.457,41.123c8.941,18.019-40.777,27.363-93.201,14.206
					c-0.092-0.868-0.168-1.741-0.214-2.626C0.743,27.924,19.535,7.235,44.342,3.849c-2.366,0.325,28.589-13.923,49.341,28.692
					 M93.684,32.541"/>
				<path clip-path="url(#SVGID_2_)" fill="#FFC113" d="M49.982,50.131c-10.379,4.606-25.39,7.076-47.726,5.198
					c2.672,24.442,24.462,42.82,49.871,41.489c2.289-0.123,4.53-0.401,6.73-0.822C59.613,80.327,52.055,65.554,49.982,50.131"/>
				<path clip-path="url(#SVGID_2_)" fill="#8AC64F" d="M97.94,47.716c-1.346-21.768-18.112-34.719-18.338-34.397
					C73.785,21.524,72.298,40.5,50.6,50.131c2.072,15.423,9.631,30.196,8.863,45.865C82.527,91.576,99.402,71.201,97.94,47.716"/>
				<path opacity="0.05" clip-path="url(#SVGID_2_)" d="M78.129,14.235c-0.362-1.207-1.876-1.319-2.547-0.337
					c-0.086,0.129-0.155,0.271-0.235,0.403c0,0-0.004,0.005-0.006,0.01c-1.014,1.637-1.707,3.633-2.567,5.328
					c-2.291,4.533-4.836,8.933-7.658,13.152c-3.148,4.697-6.833,9.457-11.513,12.536c0.491-0.646,0.922-1.347,1.27-2.106
					c2.34-5.084-0.597-10.241-5.617-12.079c-5.195-1.907-11.342-1.139-13.518,4.551c-2.106,5.505,2.347,10.933,6.958,13.258
					c0.006,0.004,0.008,0.009,0.017,0.011c-13.732,2.089-27.547,3.688-41.326,5.391c-1.738,0.217-1.818,2.93,0,2.791
					c16.708-1.309,36.16,1.215,44.21,17.964c2.102,4.378,3.034,9.318,3.258,14.139c0.104,2.154-0.368,4.468-0.082,6.589
					c0.087,0.64,0.491,0.941,0.962,0.996c0.115,0.021,0.242,0.038,0.385,0.021c2.78-0.2,8.358,0.576,8.939-3.04
					c0.809-5.024,1.777-10.025,2.781-15.006c1.955-9.666,4.187-19.273,6.591-28.84c1.573-6.29,3.246-12.544,4.986-18.788
					c1.035-3.723,2.108-7.44,3.203-11.149C77.069,18.525,78.611,15.841,78.129,14.235"/>
			</g>
		</g>
	</g>
	<path fill="#FFFFFF" d="M80.857,13.209c-0.36-1.206-1.874-1.319-2.543-0.333c-0.088,0.124-0.156,0.271-0.239,0.396
		c0,0.01-0.004,0.01-0.004,0.016c-1.013,1.638-1.709,3.635-2.566,5.33c-2.292,4.526-4.837,8.93-7.66,13.146
		c-3.147,4.701-6.831,9.454-11.512,12.546c0.491-0.65,0.92-1.353,1.271-2.116c2.336-5.079-0.596-10.235-5.617-12.076
		c-5.191-1.908-11.339-1.143-13.52,4.551C36.365,40.17,40.814,45.6,45.43,47.929c0,0.005,0.003,0.005,0.012,0.009
		c-13.727,2.096-27.547,3.681-41.326,5.391c-1.736,0.217-1.817,2.929,0,2.787c16.708-1.307,36.163,1.222,44.209,17.975
		c2.102,4.371,3.034,9.31,3.266,14.13c0.098,2.16-0.372,4.467-0.084,6.589c0.084,0.637,0.485,0.944,0.958,0.993
		c0.118,0.032,0.243,0.044,0.386,0.032c2.78-0.208,8.356,0.573,8.941-3.052c0.807-5.02,1.775-10.014,2.779-15.005
		c1.962-9.665,4.19-19.27,6.586-28.837c1.577-6.282,3.255-12.544,4.994-18.784c1.035-3.724,2.113-7.436,3.204-11.146
		C79.801,17.503,81.341,14.813,80.857,13.209"/>
</g>
</svg>
