<?xml version="1.0" encoding="utf-8"?>
<!-- Generator: Adobe Illustrator 16.0.3, SVG Export Plug-In . SVG Version: 6.00 Build 0)  -->
<!DOCTYPE svg PUBLIC "-//W3C//DTD SVG 1.1//EN" "http://www.w3.org/Graphics/SVG/1.1/DTD/svg11.dtd">
<svg version="1.1" id="Your_Icon" xmlns="http://www.w3.org/2000/svg" xmlns:xlink="http://www.w3.org/1999/xlink" x="0px" y="0px"
	 width="50px" height="50px" viewBox="25 25 50 50" enable-background="new 25 25 50 50" xml:space="preserve">
<path fill="#FFFFFF" d="M63.729,36.579c-2.205,0-3.996-1.802-3.996-4.026c0-2.223,1.791-4.024,3.996-4.024
	c2.204,0,3.991,1.802,3.991,4.024C67.722,34.777,65.933,36.579,63.729,36.579z"/>
<path fill="#FFFFFF" d="M37.77,27.94c-0.854-0.078-1.67,0.126-2.359,0.531l-0.013-0.013l-0.087,0.074
	c-0.34,0.213-0.646,0.476-0.91,0.779l-4.888,4.188l-2.573,0.575l1.309,2.208l1.564-2.275l3.651-1.451
	c0.269,1.79,1.713,3.232,3.581,3.401c2.196,0.198,4.142-1.435,4.342-3.65C41.588,30.093,39.966,28.138,37.77,27.94z"/>
<path fill="#FFFFFF" d="M48.695,51.478L40.301,37.45v0.087l-0.015-0.086c0,0-4.475-0.02-5.967-0.009
	c-1.759,0.013-6.768,1.407-6.768,1.407c-0.379,0.042-0.672,0.352-0.691,0.732l-0.237,3.591l-1.306,0.244L25,49.545l1.291,0.066
	l-0.039,0.751l5.469,0.06c0.308,0.148,0.633,0.263,0.964,0.362l-0.754,10.602h1.779l0.039,10.313l2.558-0.06l1.317-10.254h0.566
	L38.164,71.64h2.347l1.486-10.254h2.221l-2.585-15.739l4.25,5.831H48.695z M32.765,49.667c-0.343-0.118-0.672-0.271-0.981-0.456
	l0.528-10.228c0.395-0.185,0.812-0.174,1.244-0.256L32.765,49.667z"/>
<path fill="#FFFFFF" d="M66.09,51.033l0.616-8.276l5.776,7.139h2.578l-8.022-11.596l-7.471,0.024
	c-0.577,0.048-6.187,1.442-6.187,1.442c-0.388,0.042-0.688,0.36-0.708,0.75l-0.242,3.677l-1.338,0.251L50.77,50.72l1.319,0.067
	l-0.038,0.767l5.6,0.063c0.297,0.145,0.609,0.258,0.929,0.355l-0.048,0.64v3.525v14.801h3.047l1.957-15.426l5.66,4.26l-1.103,9.621
	l2.65,0.065l2.547-11.025l-0.042-0.002L66.09,51.033z M57.714,50.376l0.54-10.474c0,0,0.665-0.202,1.223-0.311l-0.813,11.231
	C58.332,50.704,58.013,50.555,57.714,50.376z"/>
</svg>
